<?xml version="1.0" encoding="UTF-8"?>
<svg xmlns="http://www.w3.org/2000/svg" width="750" height="750" viewBox="0 0 750 750" role="img" aria-label="Hisway Press logo">
  <path d="M 359 560 L 361 560 L 362 561 L 364 561 L 366 563 L 366 568 L 364 570 L 358 570 L 357 569 L 358 568 L 358 561 Z M 403 559 L 406 562 L 406 565 L 405 566 L 405 567 L 404 568 L 402 568 L 401 569 L 399 569 L 398 568 L 398 564 L 397 563 L 397 561 L 398 560 L 400 560 L 401 559 Z M 388 556 L 390 558 L 390 562 L 391 563 L 391 568 L 392 569 L 392 574 L 393 575 L 393 580 L 394 581 L 394 584 L 393 585 L 393 586 L 396 586 L 397 585 L 401 585 L 402 584 L 400 582 L 400 578 L 399 577 L 399 576 L 401 574 L 405 578 L 405 579 L 407 581 L 407 584 L 408 584 L 409 583 L 414 583 L 415 582 L 417 582 L 416 582 L 412 578 L 412 577 L 408 573 L 408 572 L 411 569 L 411 568 L 412 567 L 412 561 L 411 560 L 411 558 L 408 555 L 407 555 L 406 554 L 395 554 L 394 555 L 390 555 L 389 556 Z M 351 554 L 351 555 L 352 556 L 352 557 L 351 558 L 352 559 L 352 560 L 351 561 L 351 572 L 350 573 L 350 582 L 349 583 L 349 585 L 356 585 L 357 586 L 357 584 L 356 583 L 356 581 L 357 580 L 357 577 L 358 576 L 364 576 L 365 575 L 367 575 L 371 571 L 371 570 L 372 569 L 372 561 L 371 560 L 371 559 L 368 556 L 366 556 L 365 555 L 356 555 L 355 554 Z M 435 544 L 434 545 L 432 545 L 431 546 L 429 546 L 428 547 L 429 548 L 429 549 L 430 550 L 430 551 L 431 552 L 431 553 L 432 554 L 432 556 L 433 557 L 433 558 L 434 559 L 434 561 L 435 562 L 435 563 L 436 564 L 436 566 L 437 567 L 437 569 L 438 570 L 438 571 L 439 572 L 439 575 L 442 575 L 443 574 L 444 574 L 445 573 L 447 573 L 447 572 L 445 570 L 445 569 L 444 568 L 444 567 L 443 566 L 443 564 L 442 563 L 442 561 L 441 560 L 441 559 L 440 558 L 440 556 L 439 555 L 439 553 L 438 552 L 438 551 L 437 550 L 437 548 L 436 547 L 436 544 Z M 299 542 L 300 542 L 302 544 L 303 544 L 305 546 L 305 549 L 302 552 L 298 552 L 297 551 L 296 551 L 295 550 L 295 549 L 296 548 L 296 547 L 297 546 L 297 545 L 298 544 L 298 543 Z M 294 534 L 294 537 L 293 538 L 293 539 L 292 540 L 292 541 L 291 542 L 291 543 L 290 544 L 290 545 L 289 546 L 289 547 L 288 548 L 288 549 L 287 550 L 287 551 L 286 552 L 286 553 L 285 554 L 285 555 L 284 556 L 284 557 L 283 558 L 283 559 L 282 560 L 281 560 L 281 561 L 282 562 L 283 562 L 284 563 L 285 563 L 286 564 L 287 564 L 288 565 L 289 564 L 289 561 L 290 560 L 290 559 L 291 558 L 291 557 L 292 556 L 294 556 L 295 557 L 295 558 L 294 559 L 295 560 L 295 564 L 294 565 L 294 566 L 293 567 L 294 568 L 295 568 L 296 569 L 297 569 L 298 570 L 299 570 L 300 571 L 301 571 L 302 572 L 302 570 L 301 569 L 301 559 L 302 558 L 304 558 L 305 557 L 306 557 L 309 554 L 309 553 L 310 552 L 310 551 L 311 550 L 311 545 L 310 544 L 310 543 L 306 539 L 305 539 L 304 538 L 303 538 L 302 537 L 301 537 L 300 536 L 299 536 L 298 535 L 297 535 L 296 534 Z M 472 524 L 471 524 L 470 525 L 469 525 L 467 527 L 466 527 L 465 528 L 465 529 L 469 533 L 469 534 L 471 536 L 471 537 L 473 539 L 473 540 L 472 541 L 470 539 L 469 539 L 468 538 L 467 538 L 466 537 L 465 537 L 464 536 L 463 536 L 462 535 L 461 535 L 460 534 L 459 534 L 458 533 L 457 533 L 456 534 L 455 534 L 453 536 L 452 536 L 451 537 L 455 541 L 455 542 L 457 544 L 457 545 L 459 547 L 459 548 L 460 549 L 460 550 L 462 552 L 462 553 L 465 556 L 465 557 L 466 558 L 466 559 L 468 561 L 468 563 L 469 562 L 470 562 L 472 560 L 473 560 L 474 559 L 475 559 L 475 558 L 471 554 L 471 553 L 470 552 L 470 551 L 467 548 L 467 547 L 468 546 L 469 546 L 471 548 L 472 548 L 473 549 L 474 549 L 475 550 L 476 550 L 477 551 L 478 551 L 479 552 L 480 552 L 481 553 L 484 553 L 486 551 L 487 551 L 488 550 L 488 549 L 485 546 L 485 545 L 483 543 L 483 542 L 481 540 L 481 539 L 479 537 L 479 536 L 477 534 L 477 533 L 475 531 L 475 530 L 473 528 L 473 526 L 472 525 Z M 375 523 L 375 524 L 376 525 L 376 526 L 377 527 L 377 524 L 378 523 Z M 367 522 L 368 523 L 368 525 L 367 526 L 368 526 L 368 525 L 370 523 L 369 523 L 368 522 Z M 384 521 L 383 522 L 382 522 L 382 523 L 383 524 L 383 525 L 384 526 L 385 526 L 386 525 L 387 525 L 384 522 L 385 521 Z M 268 520 L 270 522 L 270 523 L 271 524 L 271 526 L 270 527 L 270 529 L 269 530 L 269 531 L 265 535 L 264 535 L 262 537 L 257 537 L 254 534 L 254 528 L 255 527 L 255 526 L 261 520 L 263 520 L 264 519 L 266 519 L 267 520 Z M 360 519 L 358 521 L 358 522 L 359 522 L 360 523 L 361 523 L 361 521 L 362 520 L 361 519 Z M 391 517 L 390 518 L 389 518 L 389 519 L 390 520 L 390 521 L 391 522 L 392 522 L 391 521 L 391 520 L 392 519 L 393 519 L 394 520 L 394 519 L 392 517 Z M 268 514 L 260 514 L 259 515 L 258 515 L 257 516 L 256 516 L 250 522 L 250 523 L 249 524 L 249 525 L 248 526 L 248 534 L 249 535 L 249 537 L 253 541 L 254 541 L 255 542 L 257 542 L 258 543 L 262 543 L 263 542 L 265 542 L 266 541 L 267 541 L 268 540 L 269 540 L 274 535 L 274 534 L 275 533 L 275 531 L 276 530 L 276 522 L 275 521 L 275 520 L 274 519 L 274 518 L 272 516 L 271 516 L 270 515 L 269 515 Z M 354 511 L 352 513 L 351 513 L 351 514 L 352 515 L 352 516 L 353 517 L 354 517 L 356 515 L 354 515 L 353 514 L 354 513 Z M 396 510 L 395 511 L 395 513 L 396 513 L 397 512 L 398 512 L 399 513 L 398 514 L 398 515 L 399 514 L 399 512 L 398 511 L 396 513 L 395 512 L 395 511 Z M 500 496 L 491 505 L 491 506 L 483 514 L 487 518 L 488 518 L 488 517 L 493 512 L 494 512 L 505 523 L 506 523 L 510 527 L 510 528 L 511 529 L 512 529 L 512 528 L 517 523 L 516 522 L 515 522 L 511 518 L 510 518 L 498 506 L 503 501 L 504 501 L 504 500 Z M 539 451 L 538 452 L 537 452 L 533 456 L 533 457 L 532 458 L 532 461 L 531 462 L 531 463 L 532 464 L 532 467 L 533 468 L 533 469 L 537 473 L 539 473 L 540 474 L 547 474 L 548 473 L 549 473 L 554 468 L 554 467 L 555 466 L 555 459 L 554 458 L 554 457 L 552 455 L 552 454 L 551 453 L 550 453 L 548 451 Z M 210 452 L 205 457 L 205 458 L 204 459 L 204 465 L 205 466 L 205 468 L 210 473 L 211 473 L 212 474 L 219 474 L 220 473 L 222 473 L 226 469 L 226 468 L 227 467 L 227 466 L 228 465 L 228 460 L 227 459 L 227 457 L 222 452 L 221 452 L 220 451 L 212 451 L 211 452 Z M 209 422 L 210 421 L 211 421 L 212 422 L 212 423 L 211 424 L 210 424 L 209 423 Z M 538 421 L 539 420 L 540 420 L 541 421 L 540 422 L 539 422 Z M 223 424 L 223 420 L 224 419 L 226 419 L 228 421 L 228 422 L 225 425 L 224 425 Z M 193 420 L 194 419 L 196 419 L 197 420 L 196 421 L 194 421 Z M 552 418 L 553 417 L 555 417 L 556 418 L 556 419 L 555 420 L 553 420 L 552 419 Z M 236 418 L 236 426 L 243 426 L 243 425 L 239 425 L 238 424 L 239 423 L 241 423 L 242 422 L 241 421 L 239 421 L 238 420 L 239 419 L 243 419 L 243 418 Z M 221 418 L 221 426 L 227 426 L 230 423 L 230 422 L 229 421 L 229 420 L 227 418 Z M 209 418 L 209 419 L 208 420 L 208 422 L 207 423 L 207 424 L 206 425 L 206 426 L 208 426 L 209 425 L 212 425 L 213 426 L 215 426 L 215 425 L 214 424 L 214 423 L 213 422 L 213 421 L 212 420 L 212 418 Z M 192 418 L 192 426 L 193 426 L 193 424 L 195 422 L 197 424 L 197 425 L 198 426 L 199 426 L 199 425 L 198 424 L 198 423 L 199 422 L 199 418 Z M 178 418 L 178 419 L 180 419 L 181 420 L 181 426 L 182 426 L 182 420 L 183 419 L 185 419 L 185 418 Z M 565 416 L 565 424 L 566 425 L 566 423 L 567 422 L 568 422 L 571 425 L 572 424 L 570 422 L 570 421 L 569 420 L 569 419 L 571 417 L 571 416 L 569 416 L 567 418 L 566 417 L 566 416 Z M 551 416 L 551 424 L 552 424 L 552 422 L 553 421 L 554 421 L 556 423 L 556 424 L 557 425 L 558 424 L 558 423 L 557 422 L 557 421 L 558 420 L 558 417 L 557 416 Z M 539 416 L 538 417 L 538 418 L 537 419 L 537 420 L 536 421 L 536 423 L 535 424 L 536 425 L 538 423 L 541 423 L 543 425 L 544 424 L 543 423 L 543 421 L 542 420 L 542 419 L 541 418 L 541 417 L 540 416 Z M 520 416 L 520 425 L 522 423 L 524 425 L 525 424 L 528 424 L 528 416 L 527 416 L 526 417 L 526 418 L 525 419 L 525 420 L 524 421 L 522 419 L 522 417 L 521 416 Z M 318 385 L 319 386 L 319 464 L 318 465 L 318 468 L 317 469 L 317 470 L 313 474 L 312 474 L 311 475 L 310 475 L 309 476 L 308 476 L 307 477 L 306 477 L 306 494 L 312 494 L 313 493 L 315 493 L 316 492 L 318 492 L 319 491 L 323 491 L 324 490 L 331 490 L 332 491 L 335 491 L 336 492 L 339 492 L 340 493 L 342 493 L 343 494 L 349 494 L 349 477 L 348 477 L 347 476 L 345 476 L 344 475 L 343 475 L 340 472 L 340 471 L 373 438 L 375 438 L 376 439 L 376 440 L 377 440 L 408 471 L 408 472 L 405 475 L 404 475 L 403 476 L 401 476 L 400 477 L 399 477 L 399 494 L 406 494 L 407 493 L 409 493 L 410 492 L 412 492 L 413 491 L 417 491 L 418 490 L 425 490 L 426 491 L 429 491 L 430 492 L 431 492 L 432 493 L 435 493 L 436 494 L 443 494 L 443 477 L 441 477 L 440 476 L 439 476 L 438 475 L 437 475 L 436 474 L 435 474 L 432 471 L 432 470 L 431 469 L 431 468 L 430 467 L 430 395 L 429 394 L 429 392 L 428 391 L 428 390 L 426 388 L 425 388 L 423 386 L 413 386 L 412 385 L 411 386 L 411 387 L 412 388 L 412 443 L 411 444 L 412 445 L 412 446 L 411 447 L 410 447 L 384 421 L 384 420 L 385 419 L 385 418 L 390 413 L 391 413 L 392 412 L 394 412 L 395 411 L 398 411 L 398 407 L 397 406 L 397 405 L 396 404 L 396 403 L 392 399 L 390 399 L 389 398 L 381 398 L 380 399 L 379 399 L 378 400 L 377 400 L 375 402 L 374 402 L 373 401 L 372 401 L 371 400 L 370 400 L 369 399 L 367 399 L 366 398 L 361 398 L 360 399 L 358 399 L 357 400 L 356 400 L 352 404 L 352 405 L 351 406 L 351 409 L 350 410 L 351 411 L 352 411 L 353 412 L 356 412 L 357 413 L 358 413 L 359 414 L 360 414 L 362 416 L 362 417 L 364 419 L 364 421 L 341 444 L 340 444 L 338 446 L 337 446 L 336 445 L 336 395 L 335 394 L 335 393 L 333 391 L 333 390 L 332 389 L 331 389 L 329 387 L 328 387 L 327 386 L 326 386 L 325 385 L 320 385 L 319 384 Z M 144 369 L 145 368 L 163 368 L 164 369 L 164 387 L 165 388 L 191 388 L 192 389 L 192 399 L 191 400 L 145 400 L 144 399 L 145 398 L 146 398 L 152 392 L 153 392 L 159 386 L 159 384 L 151 376 L 150 376 L 144 370 Z M 606 369 L 605 370 L 604 370 L 596 378 L 595 378 L 590 383 L 590 384 L 591 385 L 591 386 L 594 389 L 595 389 L 601 395 L 602 395 L 605 398 L 605 399 L 604 400 L 603 399 L 559 399 L 558 398 L 558 388 L 559 387 L 585 387 L 585 369 L 586 368 L 603 368 L 604 367 Z M 572 365 L 573 364 L 575 366 L 574 367 L 573 367 L 572 366 Z M 550 364 L 552 366 L 552 369 L 551 370 L 550 370 L 548 368 L 548 366 Z M 205 364 L 204 365 L 205 366 L 207 366 L 208 367 L 208 373 L 210 373 L 210 367 L 211 366 L 213 366 L 213 364 Z M 191 364 L 189 366 L 189 367 L 191 369 L 192 369 L 193 370 L 194 370 L 195 371 L 194 372 L 190 372 L 189 373 L 190 373 L 191 374 L 195 374 L 197 372 L 197 369 L 196 369 L 195 368 L 193 368 L 192 367 L 192 366 L 193 365 L 194 365 L 195 366 L 196 366 L 197 365 L 196 364 Z M 175 364 L 174 365 L 174 373 L 182 373 L 182 372 L 177 372 L 176 371 L 178 369 L 179 370 L 180 370 L 181 369 L 180 368 L 177 368 L 176 367 L 177 366 L 182 366 L 182 365 L 181 364 Z M 575 363 L 571 363 L 570 364 L 570 367 L 572 369 L 572 371 L 571 372 L 573 372 L 575 370 L 575 369 L 576 368 L 576 364 Z M 562 363 L 561 364 L 560 364 L 560 365 L 561 365 L 562 366 L 562 372 L 563 372 L 563 363 Z M 548 363 L 547 364 L 547 370 L 549 372 L 551 372 L 553 370 L 553 369 L 554 368 L 554 367 L 553 366 L 553 364 L 552 363 Z M 535 363 L 534 364 L 534 365 L 536 365 L 537 364 L 538 365 L 538 366 L 534 370 L 534 372 L 540 372 L 540 370 L 539 370 L 538 369 L 540 367 L 540 364 L 539 363 Z M 168 353 L 169 352 L 220 352 L 221 353 L 221 382 L 220 383 L 169 383 L 168 382 Z M 528 352 L 529 351 L 580 351 L 581 352 L 581 382 L 580 383 L 530 383 L 528 381 Z M 136 365 L 136 369 L 137 370 L 138 370 L 147 379 L 148 379 L 154 385 L 149 390 L 148 390 L 140 398 L 139 398 L 135 402 L 135 404 L 136 405 L 195 405 L 196 404 L 196 389 L 197 388 L 224 388 L 225 387 L 225 348 L 224 347 L 165 347 L 164 348 L 164 363 L 163 364 L 137 364 Z M 524 347 L 524 386 L 525 387 L 553 387 L 554 388 L 554 404 L 613 404 L 613 403 L 614 402 L 614 401 L 607 394 L 606 394 L 596 384 L 596 383 L 600 379 L 601 379 L 609 371 L 610 371 L 614 367 L 614 364 L 613 363 L 586 363 L 585 362 L 585 347 L 584 346 L 525 346 Z M 510 331 L 511 330 L 513 332 L 512 333 L 511 333 L 510 332 Z M 524 330 L 525 329 L 527 329 L 529 331 L 529 332 L 527 334 L 525 334 L 524 333 Z M 229 329 L 230 328 L 231 329 L 230 330 Z M 537 327 L 537 335 L 544 335 L 544 334 L 539 334 L 538 333 L 539 332 L 542 332 L 543 331 L 540 331 L 538 329 L 539 328 L 544 328 L 544 327 Z M 523 327 L 522 328 L 523 329 L 523 333 L 522 334 L 522 335 L 529 335 L 530 334 L 530 333 L 531 332 L 531 331 L 530 330 L 530 329 L 528 327 Z M 510 327 L 510 329 L 509 330 L 509 331 L 508 332 L 508 333 L 507 334 L 507 335 L 509 335 L 510 334 L 513 334 L 514 335 L 516 335 L 515 334 L 515 332 L 514 331 L 514 330 L 513 329 L 513 327 Z M 492 327 L 492 335 L 493 335 L 494 334 L 495 335 L 497 335 L 498 334 L 499 335 L 500 335 L 500 327 L 499 327 L 498 328 L 498 329 L 497 330 L 497 331 L 496 332 L 495 331 L 495 330 L 494 329 L 494 328 L 493 327 Z M 256 327 L 257 326 L 260 326 L 261 327 L 261 328 L 262 329 L 260 331 L 259 331 L 258 332 L 256 330 Z M 255 324 L 255 333 L 260 333 L 263 330 L 263 327 L 260 324 Z M 241 324 L 241 333 L 242 333 L 242 330 L 243 329 L 244 329 L 245 330 L 245 331 L 247 333 L 248 333 L 248 324 L 247 324 L 247 328 L 246 329 L 245 328 L 245 327 L 242 324 Z M 229 324 L 228 325 L 228 327 L 227 328 L 227 329 L 226 330 L 226 333 L 227 333 L 229 331 L 230 331 L 232 333 L 234 333 L 234 332 L 233 331 L 233 329 L 232 328 L 232 327 L 231 326 L 231 325 L 230 324 Z M 212 324 L 211 325 L 211 332 L 212 333 L 213 332 L 213 331 L 214 330 L 216 330 L 217 331 L 217 332 L 218 333 L 219 333 L 219 325 L 218 324 L 217 325 L 217 327 L 216 328 L 214 328 L 212 326 L 213 325 Z M 572 283 L 571 283 L 570 282 L 564 282 L 561 285 L 561 286 L 560 287 L 560 291 L 559 292 L 560 293 L 560 298 L 559 299 L 559 300 L 558 301 L 557 301 L 556 302 L 552 298 L 552 296 L 551 295 L 551 291 L 552 290 L 552 288 L 551 289 L 550 289 L 549 290 L 548 290 L 547 291 L 546 291 L 545 292 L 545 295 L 546 296 L 546 298 L 547 299 L 547 301 L 548 302 L 548 303 L 551 306 L 552 306 L 553 307 L 556 307 L 557 308 L 558 308 L 559 307 L 561 307 L 562 306 L 563 306 L 565 304 L 565 303 L 566 302 L 566 290 L 568 288 L 569 288 L 570 289 L 570 290 L 571 291 L 571 297 L 570 298 L 570 299 L 571 298 L 572 298 L 573 297 L 574 297 L 575 296 L 577 296 L 577 292 L 576 291 L 576 289 L 575 288 L 575 287 L 574 286 L 574 285 Z M 186 275 L 185 276 L 185 277 L 183 279 L 183 280 L 182 281 L 182 282 L 183 282 L 184 283 L 186 283 L 187 284 L 188 284 L 189 285 L 190 285 L 191 286 L 192 286 L 193 287 L 194 287 L 196 289 L 196 292 L 192 296 L 191 296 L 190 295 L 189 295 L 188 294 L 187 294 L 186 293 L 185 293 L 184 292 L 183 292 L 182 291 L 181 291 L 179 289 L 178 289 L 178 290 L 177 291 L 177 292 L 176 293 L 176 294 L 175 295 L 175 296 L 176 297 L 179 297 L 181 299 L 182 299 L 183 300 L 184 300 L 185 301 L 186 301 L 187 302 L 188 302 L 189 303 L 190 303 L 191 304 L 192 304 L 193 305 L 195 305 L 196 306 L 197 306 L 199 308 L 200 308 L 202 310 L 203 309 L 203 308 L 204 307 L 204 306 L 205 305 L 205 304 L 206 303 L 206 302 L 203 302 L 202 301 L 201 301 L 200 300 L 199 300 L 198 299 L 198 298 L 200 296 L 200 293 L 202 291 L 203 292 L 204 292 L 205 293 L 206 293 L 209 296 L 211 294 L 211 293 L 212 292 L 212 291 L 213 290 L 213 288 L 210 288 L 209 287 L 208 287 L 207 286 L 206 286 L 205 285 L 204 285 L 203 284 L 202 284 L 201 283 L 200 283 L 199 282 L 198 282 L 197 281 L 196 281 L 195 280 L 194 280 L 193 279 L 192 279 L 191 278 L 190 278 L 188 276 L 187 276 Z M 261 295 L 261 311 L 262 312 L 267 314 L 271 317 L 271 318 L 273 320 L 273 325 L 274 326 L 274 412 L 273 413 L 273 415 L 272 416 L 272 417 L 267 422 L 266 422 L 263 424 L 261 424 L 261 441 L 262 442 L 263 442 L 264 441 L 269 441 L 270 440 L 272 440 L 275 438 L 288 438 L 289 439 L 292 439 L 293 440 L 295 440 L 296 441 L 300 441 L 301 442 L 304 441 L 304 424 L 302 424 L 301 423 L 298 422 L 293 417 L 293 416 L 292 415 L 292 378 L 293 377 L 456 377 L 458 379 L 457 380 L 457 415 L 456 416 L 456 417 L 450 423 L 448 423 L 447 424 L 445 424 L 444 425 L 444 439 L 445 440 L 445 441 L 452 441 L 453 440 L 455 440 L 456 439 L 459 439 L 460 438 L 465 438 L 466 437 L 468 437 L 469 438 L 474 438 L 475 439 L 476 439 L 477 440 L 479 440 L 480 441 L 488 441 L 488 424 L 486 424 L 485 423 L 482 422 L 477 417 L 477 416 L 476 415 L 476 412 L 475 411 L 475 325 L 476 324 L 476 321 L 477 320 L 478 317 L 479 316 L 480 316 L 483 313 L 488 312 L 488 294 L 484 294 L 483 295 L 479 295 L 478 296 L 473 298 L 471 300 L 470 300 L 466 303 L 464 301 L 463 301 L 461 299 L 460 299 L 456 296 L 454 296 L 453 295 L 448 295 L 447 294 L 446 294 L 445 295 L 445 311 L 446 312 L 451 314 L 456 319 L 456 320 L 457 321 L 457 358 L 456 359 L 431 359 L 430 358 L 430 282 L 431 281 L 431 280 L 436 275 L 437 275 L 442 272 L 442 255 L 440 255 L 439 256 L 435 256 L 434 257 L 432 257 L 431 258 L 430 258 L 429 259 L 427 259 L 426 260 L 416 260 L 415 259 L 413 259 L 410 257 L 407 257 L 406 256 L 399 256 L 399 273 L 401 273 L 402 274 L 404 274 L 405 275 L 406 275 L 410 279 L 410 280 L 411 281 L 411 283 L 412 284 L 412 353 L 411 354 L 412 355 L 412 358 L 411 359 L 338 359 L 337 358 L 337 314 L 336 313 L 336 284 L 337 283 L 337 280 L 338 279 L 338 278 L 343 273 L 344 273 L 347 271 L 349 271 L 349 254 L 342 254 L 339 256 L 337 256 L 336 257 L 332 257 L 331 258 L 323 258 L 322 257 L 320 257 L 319 256 L 316 256 L 315 255 L 313 255 L 312 254 L 306 254 L 306 271 L 307 271 L 308 272 L 310 272 L 312 274 L 313 274 L 317 278 L 317 279 L 318 280 L 318 283 L 319 284 L 319 355 L 318 356 L 319 357 L 317 359 L 293 359 L 292 358 L 292 321 L 293 320 L 293 319 L 299 313 L 301 313 L 302 312 L 304 312 L 305 311 L 305 295 L 303 295 L 302 294 L 301 295 L 296 295 L 295 296 L 293 296 L 292 297 L 289 298 L 283 303 L 282 303 L 279 300 L 278 300 L 276 298 L 275 298 L 272 296 L 270 296 L 269 295 L 265 295 L 264 294 L 262 294 Z M 203 249 L 202 250 L 202 251 L 199 254 L 199 255 L 198 256 L 200 256 L 202 258 L 203 258 L 206 261 L 207 261 L 209 263 L 210 263 L 213 266 L 214 266 L 218 270 L 219 270 L 222 273 L 222 274 L 223 274 L 225 272 L 225 271 L 228 268 L 228 267 L 226 267 L 224 265 L 223 265 L 220 262 L 219 262 L 216 259 L 215 259 L 212 256 L 211 256 L 208 253 L 207 253 L 204 250 L 204 249 Z M 549 247 L 548 247 L 547 246 L 543 246 L 542 247 L 541 247 L 538 250 L 538 252 L 537 253 L 537 255 L 538 256 L 538 260 L 539 261 L 539 266 L 537 268 L 535 268 L 531 264 L 531 263 L 530 262 L 530 255 L 527 258 L 526 258 L 523 261 L 524 262 L 524 264 L 525 265 L 525 266 L 528 269 L 528 270 L 530 272 L 531 272 L 532 273 L 533 273 L 534 274 L 539 274 L 540 273 L 541 273 L 542 272 L 543 272 L 545 270 L 545 269 L 546 268 L 546 260 L 545 259 L 545 257 L 544 256 L 544 254 L 546 252 L 549 255 L 549 256 L 550 257 L 550 262 L 551 262 L 554 259 L 555 259 L 556 258 L 556 257 L 555 256 L 555 255 L 554 254 L 554 253 L 553 252 L 553 251 Z M 410 233 L 411 232 L 413 234 L 412 235 L 411 235 L 410 234 Z M 339 232 L 339 234 L 338 235 L 337 234 L 337 235 L 339 235 L 340 236 L 340 233 Z M 411 231 L 409 233 L 409 235 L 410 235 L 411 236 L 412 236 L 413 235 L 413 232 L 412 231 Z M 345 229 L 346 228 L 348 228 L 349 229 L 349 230 L 348 231 L 346 231 L 345 230 Z M 348 227 L 346 227 L 345 228 L 345 231 L 346 231 L 347 232 L 348 231 L 349 231 L 349 228 Z M 403 226 L 403 227 L 401 229 L 401 230 L 403 228 L 404 229 L 404 231 L 405 231 L 406 230 L 406 229 L 407 228 L 406 228 L 405 229 L 404 228 L 404 226 Z M 397 224 L 396 223 L 393 226 L 395 226 L 396 227 L 397 227 Z M 356 223 L 356 224 L 357 225 L 357 226 L 356 227 L 355 227 L 354 226 L 354 225 L 353 224 L 353 226 L 354 227 L 357 227 L 357 224 Z M 363 222 L 364 221 L 365 222 L 364 223 Z M 230 221 L 229 222 L 228 222 L 221 229 L 221 235 L 223 237 L 223 238 L 224 238 L 225 239 L 226 239 L 227 240 L 230 240 L 231 239 L 233 239 L 234 238 L 236 238 L 237 237 L 242 237 L 244 239 L 244 241 L 240 245 L 239 245 L 238 246 L 237 246 L 236 247 L 232 247 L 236 251 L 236 252 L 237 253 L 238 253 L 239 252 L 240 252 L 241 251 L 242 251 L 245 248 L 246 248 L 247 247 L 247 246 L 248 245 L 248 244 L 249 243 L 249 236 L 248 235 L 248 234 L 245 231 L 244 231 L 243 230 L 237 230 L 236 231 L 234 231 L 233 232 L 231 232 L 230 233 L 228 233 L 227 232 L 227 230 L 229 228 L 230 228 L 231 227 L 236 227 L 236 226 L 231 221 Z M 385 220 L 385 222 L 384 223 L 384 224 L 385 224 L 385 223 L 386 222 L 387 223 L 387 225 L 388 225 L 388 221 L 387 220 Z M 364 220 L 363 221 L 362 221 L 362 225 L 363 225 L 363 224 L 364 223 L 365 224 L 366 224 L 365 223 L 366 222 Z M 379 219 L 377 219 L 376 220 L 376 223 L 377 224 L 378 224 L 380 222 L 380 220 Z M 517 214 L 517 215 L 513 219 L 513 220 L 502 231 L 502 232 L 498 236 L 497 236 L 497 237 L 505 245 L 506 245 L 510 249 L 511 249 L 515 245 L 514 245 L 512 243 L 511 243 L 506 238 L 508 236 L 508 235 L 511 232 L 512 232 L 516 236 L 516 237 L 518 237 L 519 236 L 519 235 L 521 233 L 518 230 L 517 230 L 515 228 L 517 226 L 517 225 L 519 223 L 522 226 L 523 226 L 525 228 L 525 229 L 527 231 L 528 230 L 528 229 L 531 226 L 528 223 L 527 223 L 519 215 L 518 215 Z M 481 196 L 482 197 L 483 197 L 487 201 L 487 203 L 484 206 L 483 206 L 482 207 L 481 206 L 479 206 L 477 204 L 477 202 L 479 200 L 479 199 L 480 198 L 480 197 Z M 477 187 L 477 189 L 476 190 L 476 191 L 475 192 L 475 193 L 474 194 L 474 195 L 472 197 L 472 198 L 471 199 L 471 200 L 470 201 L 470 202 L 468 204 L 468 205 L 467 206 L 467 207 L 465 209 L 465 210 L 464 211 L 464 212 L 463 213 L 462 213 L 461 214 L 462 214 L 463 215 L 464 215 L 466 217 L 467 217 L 468 218 L 469 218 L 469 217 L 470 216 L 470 214 L 472 212 L 472 211 L 474 209 L 476 211 L 476 213 L 475 214 L 475 219 L 474 220 L 473 220 L 473 221 L 474 221 L 475 222 L 476 222 L 478 224 L 479 224 L 481 226 L 482 226 L 482 224 L 481 223 L 481 214 L 482 213 L 483 213 L 484 212 L 487 212 L 491 208 L 491 207 L 492 206 L 492 204 L 493 203 L 493 200 L 492 199 L 492 198 L 490 196 L 490 195 L 489 195 L 487 193 L 486 193 L 484 191 L 483 191 L 482 190 L 481 190 L 480 189 L 479 189 Z M 285 183 L 284 184 L 283 184 L 282 185 L 281 185 L 280 186 L 279 186 L 278 187 L 278 189 L 279 190 L 279 191 L 280 192 L 280 194 L 281 195 L 281 197 L 282 198 L 282 199 L 283 200 L 283 201 L 282 202 L 275 195 L 275 194 L 272 191 L 271 191 L 270 192 L 269 192 L 268 193 L 267 193 L 266 194 L 265 194 L 265 195 L 266 196 L 266 197 L 267 198 L 267 201 L 268 202 L 268 204 L 269 205 L 269 207 L 270 208 L 270 209 L 269 210 L 265 206 L 265 205 L 261 201 L 261 200 L 260 199 L 260 198 L 258 198 L 256 200 L 255 200 L 254 201 L 253 201 L 252 202 L 253 202 L 255 204 L 255 205 L 261 211 L 261 212 L 266 217 L 266 218 L 272 224 L 272 226 L 273 225 L 274 225 L 275 224 L 276 224 L 278 222 L 279 222 L 280 221 L 281 221 L 281 220 L 280 219 L 280 218 L 279 217 L 279 215 L 278 214 L 278 212 L 277 211 L 277 209 L 278 208 L 280 210 L 280 211 L 285 216 L 285 217 L 286 218 L 287 217 L 288 217 L 289 216 L 290 216 L 291 215 L 292 215 L 293 214 L 294 214 L 295 213 L 295 212 L 293 210 L 293 208 L 292 207 L 292 205 L 291 204 L 291 202 L 290 201 L 290 199 L 289 198 L 289 196 L 288 195 L 288 193 L 287 192 L 287 190 L 286 189 L 286 187 L 285 186 Z M 440 179 L 442 179 L 443 180 L 444 180 L 447 183 L 447 184 L 446 185 L 446 187 L 444 189 L 442 189 L 441 190 L 440 189 L 438 189 L 437 188 L 437 186 L 438 185 L 438 184 L 439 183 L 439 180 Z M 324 178 L 325 179 L 325 180 L 326 181 L 326 183 L 327 184 L 327 186 L 326 187 L 324 187 L 323 186 L 323 179 Z M 435 171 L 434 171 L 434 176 L 433 177 L 433 179 L 432 180 L 432 182 L 431 183 L 431 185 L 430 186 L 430 188 L 429 189 L 429 191 L 428 192 L 428 194 L 427 195 L 427 197 L 426 198 L 426 199 L 425 200 L 426 201 L 428 201 L 429 202 L 431 202 L 432 203 L 433 203 L 433 199 L 434 198 L 434 196 L 436 194 L 438 194 L 439 195 L 445 195 L 446 194 L 447 194 L 448 193 L 449 193 L 451 191 L 451 190 L 452 189 L 452 187 L 453 186 L 453 182 L 452 181 L 452 179 L 449 176 L 448 176 L 447 175 L 445 175 L 444 174 L 442 174 L 441 173 L 439 173 L 438 172 L 436 172 Z M 327 169 L 326 170 L 324 170 L 323 171 L 320 171 L 319 172 L 316 172 L 316 173 L 317 174 L 317 181 L 318 182 L 318 202 L 317 203 L 317 204 L 318 203 L 322 203 L 323 202 L 325 202 L 325 200 L 324 199 L 324 193 L 325 192 L 328 192 L 329 191 L 330 191 L 331 192 L 331 193 L 332 194 L 332 196 L 333 197 L 333 199 L 334 200 L 335 199 L 337 199 L 338 198 L 341 198 L 341 197 L 340 196 L 340 195 L 338 193 L 338 192 L 337 191 L 337 190 L 336 189 L 336 187 L 335 186 L 335 185 L 334 184 L 334 183 L 333 182 L 333 181 L 332 180 L 332 179 L 331 178 L 331 177 L 330 176 L 330 175 L 328 173 L 328 170 Z M 359 164 L 361 166 L 361 167 L 362 168 L 362 169 L 363 170 L 363 171 L 364 172 L 364 173 L 365 174 L 365 175 L 366 176 L 366 178 L 367 179 L 367 180 L 368 181 L 368 184 L 369 185 L 369 191 L 368 192 L 368 195 L 377 195 L 377 194 L 376 193 L 376 184 L 375 183 L 375 182 L 376 181 L 376 180 L 377 179 L 377 177 L 378 176 L 378 174 L 379 173 L 379 172 L 380 171 L 380 170 L 381 169 L 381 166 L 383 164 L 376 164 L 376 165 L 375 166 L 375 168 L 374 169 L 374 170 L 373 171 L 373 173 L 372 174 L 371 174 L 370 173 L 370 171 L 369 170 L 369 169 L 368 168 L 368 166 L 367 165 L 367 164 Z" fill="#FFFFFF" fill-rule="evenodd" clip-rule="evenodd"/>
</svg>
